# xmcd
#
# Track frame offsets: 
#        150
#        45225
#        69651
#        140676
#        159219
#        183723
#        216594
#        230055
#
# Disc length: 3502 seconds
#
# Revision: 2
# Processed by: cddbd v1.5.2PL0 Copyright (c) Steve Scherf et al.
# Submitted via: ExactAudioCopyFreeDBPlugin 1.0
#
DISCID=760dac08
DTITLE=Cyminology - As Ney
DYEAR=2008
DGENRE=Contemporary Jazz
TTITLE0=As Ney
TTITLE1=Niyaayesh
TTITLE2=Kalaam_Dassthaa_Delbasstegi
TTITLE3=Sendegi
TTITLE4=Por Se Ssedaa
TTITLE5=Naagofte
TTITLE6=As Ssafar
TTITLE7=Ashkhaa
EXTD=YEAR: 2009
EXTT0=
EXTT1=
EXTT2=
EXTT3=
EXTT4=
EXTT5=
EXTT6=
EXTT7=
PLAYORDER=
